# AST/ASF file generated using VICON BodyLanguage
# -----------------------------------------------
:version 1.10
:name VICON
:units
  mass 1.0
  length 0.45
  angle deg
:documentation
   .ast/.asf automatically generated from VICON data using
   VICON BodyBuilder and BodyLanguage model FoxedUp or BRILLIANT.MOD
:root
   order TX TY TZ RX RY RZ
   axis XYZ
   position 0 0 0  
   orientation 0 0 0 
:bonedata
  begin
     id 1 
     name lhipjoint
     direction 0.702568 -0.596508 0.388042 
     length 2.56661 
     axis 0 0 0  XYZ
  end
  begin
     id 2 
     name lfemur
     direction 0.34202 -0.939693 0  
     length 6.58374  
     axis 0 0 20  XYZ
    dof rx ry rz
    limits (-160.0 20.0)
           (-70.0 70.0)
           (-60.0 70.0)
  end
  begin
     id 3 
     name ltibia
     direction 0.34202 -0.939693 0   
     length 6.62538   
     axis 0 0 20   XYZ
    dof rx
    limits (-10.0 170.0)
  end
  begin
     id 4 
     name lfoot
     direction 0.10455 -0.287249 0.952133   
     length 2.26699   
     axis -90 7.62852e-016 20   XYZ
    dof rx rz
    limits (-45.0 90.0)
           (-70.0 20.0)
  end
  begin
     id 5 
     name ltoes
     direction 1.53572e-011 -4.22322e-011 1   
     length 1.12949   
     axis -90 7.62852e-016 20   XYZ
    dof rx
    limits (-90.0 20.0)
  end
  begin
     id 6 
     name rhipjoint
     direction -0.728055 -0.574632 0.373811   
     length 2.66432  
     axis 0 0 0  XYZ 
  end
  begin
     id 7 
     name rfemur
     direction -0.34202 -0.939693 0   
     length 6.66732   
     axis 0 0 -20   XYZ
    dof rx ry rz
    limits (-160.0 20.0)
           (-70.0 70.0)
           (-70.0 60.0)
  end
  begin
     id 8 
     name rtibia
     direction -0.34202 -0.939693 0   
     length 6.59288   
     axis 0 0 -20   XYZ
    dof rx
    limits (-10.0 170.0)
 end
 begin
     id 9 
     name rfoot
     direction -0.119193 -0.327479 0.93731   
     length 2.38061  
     axis -90 -7.62852e-016 -20   XYZ
    dof rx rz
    limits (-45.0 90.0)
           (-20.0 70.0)
  end
  begin
     id 10 
     name rtoes
     direction -1.53547e-011 -4.21827e-011 1   
     length 1.17899   
     axis -90 -7.62852e-016 -20   XYZ
    dof rx
    limits (-90.0 20.0)
  end
  begin
     id 11 
     name lowerback
     direction -0.000416114 0.999912 -0.0132284   
     length 2.12109   
     axis 0 0 0   XYZ
    dof rx ry rz
    limits (-20.0 45.0)
           (-30.0 30.0)
           (-30.0 30.0)
  end
  begin
     id 12 
     name upperback
     direction -0.00136371 0.99809 0.0617608   
     length 2.10067   
     axis 0 0 0   XYZ
    dof rx ry rz
    limits (-20.0 45.0)
           (-30.0 30.0)
           (-30.0 30.0)
  end
  begin
     id 13 
     name thorax
     direction -3.43026e-005 0.997776 0.0666515   
     length 2.10618   
     axis 0 0 0   XYZ
    dof rx ry rz
    limits (-20.0 45.0)
           (-30.0 30.0)
           (-30.0 30.0)
  end
  begin
     id 14 
     name lowerneck
     direction 0.0398646 0.998418 0.0396592   
     length 1.83817   
     axis 0 0 0   XYZ
    dof rx ry rz
    limits (-20.0 45.0)
           (-30.0 30.0)
           (-30.0 30.0)
  end
  begin
     id 15 
     name upperneck
     direction -0.0367268 0.961527 -0.272244   
     length 1.81975   
     axis 0 0 0   XYZ
    dof rx ry rz
    limits (-20.0 45.0)
           (-30.0 30.0)
           (-30.0 30.0)
  end
  begin
     id 16
     name head
     direction -0.0182665 0.99536 -0.0944669  
     length 1.86026  
     axis 0 0 0   XYZ
    dof rx ry rz
    limits (-20.0 45.0)
           (-30.0 30.0)
           (-30.0 30.0)
  end
  begin
     id 17 
     name lclavicle
     direction 0.924239 0.361045 0.124212  
     length 3.26878  
     axis 0 0 0   XYZ
    dof ry rz
    limits (-20.0 10.0)
           (0.0 20.0)
  end
  begin
     id 18 
     name lhumerus
     direction 1 -4.48968e-011 -2.56583e-027   
     length 4.58538   
     axis 180 -30 -90   XYZ
    dof rx ry rz
    limits (-60.0 90.0)
           (-90.0 90.0)
           (-90.0 90.0)
  end
  begin
     id 19
     name lradius
     direction 1 -4.4898e-011 -5.50375e-027   
     length 2.68935   
     axis 180 -30 -90   XYZ
    dof rx
    limits (-10.0 170.0)
  end
  begin
     id 20
     name lwrist
     direction 1 -4.48939e-011 -1.48955e-026   
     length 1.34468   
     axis 9.0955e-015 90 90   XYZ
    dof ry
    limits (-180.0 0.0)
 end
  begin
     id 21 
     name lhand
     direction 1 -4.48936e-011 -2.97907e-026   
     length 0.585058   
     axis 1.90115e-014 90 90   XYZ
    dof rx rz
    limits (-90.0 90.0)
           (-45.0 45.0)
  end
  begin
     id 22 
     name lfingers
     direction 1 -4.49082e-011 -5.96235e-026   
     length 0.471689   
     axis 3.80223e-014 90 90   XYZ
    dof rx
    limits (0.0 90.0)
  end
  begin
     id 23
     name lthumb
     direction 0.707107 -6.3489e-011 0.707107   
     length 0.677253   
     axis -90 45 -3.84942e-014   XYZ
    dof rx rz
    limits (-45.0 45.0)
           (-45.0 45.0)
  end
  begin
     id 24 
     name rclavicle
     direction -0.923098 0.371783 0.0983239   
     length 3.19656  
     axis 0 0 0   XYZ 
    dof ry rz
    limits (-10.0 20.0)
           (-20.0 0.0)
  end
  begin
     id 25 
     name rhumerus
     direction -1 -4.48976e-011 -2.5492e-027  
     length 4.4745   
     axis 180 30 90   XYZ
    dof rx ry rz
    limits (-90.0 60.0)
           (-90.0 90.0)
           (-90.0 90.0)
  end
  begin
     id 26 
     name rradius
     direction -1 -4.48941e-011 -4.36555e-027   
     length 2.93896   
     axis 180 30 90   XYZ
    dof rx
    limits (-10.0 170.0)
  end
  begin
     id 27 
     name rwrist
     direction -1 -4.49044e-011 -1.49032e-026   
     length 1.46948   
     axis 9.0955e-015 -90 -90   XYZ
    dof ry
    limits (-180.0 0.0)
  end
  begin
     id 28
     name rhand
     direction -1 -4.48826e-011 -2.97749e-026   
     length 0.405092   
     axis 1.90115e-014 -90 -90   XYZ
    dof rx rz
    limits (-90.0 90.0)
           (-45.0 45.0)
  end
  begin
     id 29
     name rfingers
     direction -1 -4.49209e-011 -5.96602e-026   
     length 0.326596   
     axis 3.80223e-014 -90 -90   XYZ
    dof rx
    limits (0.0 90.0)
  end
  begin
     id 30
     name rthumb
     direction -0.707107 -6.34776e-011 0.707107   
     length 0.468928   
     axis -90 -45 3.84942e-014   XYZ
    dof rx rz
    limits (-45.0 45.0)
           (-45.0 45.0)
  end
:hierarchy
  begin
    root lhipjoint rhipjoint lowerback
    lhipjoint lfemur
    lfemur ltibia
    ltibia lfoot
    lfoot ltoes
    rhipjoint rfemur
    rfemur rtibia
    rtibia rfoot
    rfoot rtoes
    lowerback upperback
    upperback thorax
    thorax lowerneck lclavicle rclavicle
    lowerneck upperneck
    upperneck head
    lclavicle lhumerus
    lhumerus lradius
    lradius lwrist
    lwrist lhand lthumb
    lhand lfingers
    rclavicle rhumerus
    rhumerus rradius
    rradius rwrist
    rwrist rhand rthumb
    rhand rfingers
  end

#!OML:ASF H:\Punching\Project 1\Capture day 1\Session 1\female.ASF
:FULLY-SPECIFIED
:DEGREES
610
root 1.0261 15.3101 3.01714 -15.722 26.9277 -9.13129
lowerback 8.96106 -1.23177 1.01997
upperback 2.64389 -1.26809 7.37545
thorax -2.12655 -0.615433 7.30688
lowerneck -6.66097 -4.35394 6.89715
upperneck 39.421 -9.65692 5.21713
head 14.9175 -2.21693 -0.303571
rclavicle 3.07619e-014 -5.40694e-014
rhumerus -15.1484 -6.08715 -54.906
rradius 133.99
rwrist -13.8361
rhand -31.2382 10.5242
rfingers 7.12502
rthumb -4.51319 -19.4077
lclavicle 3.07619e-014 -5.40694e-014
lhumerus -5.9127 -33.6602 78.9936
lradius 136.628
lwrist 6.083
lhand -12.1544 3.98275
lfingers 7.12502
lthumb 13.9082 33.4976
rfemur -104.334 -22.9587 22.898
rtibia 126.31
rfoot 4.24811 2.67903
rtoes -14.9454
lfemur -3.35092 -4.60193 -22.6068
ltibia 36.6501
lfoot -17.0059 7.36333
ltoes 18.6402
611
root 1.01355 15.3005 2.96489 -14.0128 26.3763 -8.4062
lowerback 8.16353 -1.04683 0.926489
upperback 2.22729 -1.06136 7.09527
thorax -2.14739 -0.509003 7.01732
lowerneck -6.7341 -4.27694 6.8837
upperneck 39.4362 -9.56962 5.25532
head 14.9463 -2.17605 -0.276751
rclavicle -5.11871e-014 -2.54444e-014
rhumerus -14.9114 -5.69273 -55.1804
rradius 133.962
rwrist -14.3646
rhand -31.1912 10.5286
rfingers 7.12502
rthumb -4.4678 -19.4043
lclavicle -5.11871e-014 -2.54444e-014
lhumerus -6.02976 -33.35 78.4688
lradius 136.743
lwrist 5.96838
lhand -12.2403 4.0763
lfingers 7.12502
lthumb 13.8254 33.5968
rfemur -102.793 -22.3378 23.7952
rtibia 128.241
rfoot 3.7825 2.54087
rtoes -13.5522
lfemur -4.98574 -4.48703 -23.1633
ltibia 36.6505
lfoot -17.1312 7.98414
ltoes 18.9989
612
root 1.00029 15.293 2.91311 -12.2901 25.7978 -7.70791
lowerback 7.35018 -0.867737 0.829983
upperback 1.78548 -0.858875 6.81607
thorax -2.18091 -0.404274 6.73668
lowerneck -6.81139 -4.19519 6.87583
upperneck 39.4535 -9.47301 5.28068
head 14.9755 -2.13204 -0.255017
rclavicle -1.49089e-015 -5.88403e-014
rhumerus -14.6584 -5.29687 -55.4627
rradius 133.95
rwrist -14.9867
rhand -31.0784 10.5784
rfingers 7.12502
rthumb -4.35882 -19.3568
lclavicle -1.49089e-015 -5.88403e-014
lhumerus -6.1733 -33.013 77.9423
lradius 136.872
lwrist 5.88927
lhand -12.253 4.17541
lfingers 7.12502
lthumb 13.8132 33.6968
rfemur -100.994 -21.6261 24.5176
rtibia 129.836
rfoot 3.45183 2.54638
rtoes -12.7327
lfemur -6.68256 -4.38372 -23.6926
ltibia 36.6802
lfoot -17.2173 8.61339
ltoes 19.3189
613
root 0.986029 15.2874 2.86166 -10.6338 25.1937 -7.03831
lowerback 6.60759 -0.697318 0.732351
upperback 1.34275 -0.661505 6.53704
thorax -2.25044 -0.301572 6.46449
lowerneck -6.9007 -4.10785 6.87179
upperneck 39.4729 -9.36775 5.29609
head 15.0075 -2.08493 -0.237231
rclavicle -5.53615e-014 -1.27222e-014
rhumerus -14.3834 -4.90571 -55.7565
rradius 133.94
rwrist -15.6129
rhand -30.9142 10.6659
rfingers 7.12502
rthumb -4.20025 -19.2724
lclavicle -5.53615e-014 -1.27222e-014
lhumerus -6.34218 -32.6487 77.4127
lradius 137.014
lwrist 5.84085
lhand -12.2214 4.27563
lfingers 7.12502
lthumb 13.8436 33.7949
rfemur -98.857 -20.8331 25.0188
rtibia 131.086
rfoot 3.22413 2.72715
rtoes -12.3927
lfemur -8.35612 -4.28323 -24.1992
ltibia 36.7376
lfoot -17.2554 9.24095
ltoes 19.597
614
root 0.97081 15.283 2.8109 -9.05838 24.5711 -6.39394
lowerback 5.93771 -0.535752 0.636525
upperback 0.911192 -0.470825 6.25146
thorax -2.34516 -0.202089 6.19077
lowerneck -7.00422 -4.01682 6.87743
upperneck 39.4876 -9.26052 5.30977
head 15.04 -2.03605 -0.221984
rclavicle 2.31087e-014 8.5875e-014
rhumerus -14.0936 -4.53332 -56.0733
rradius 133.922
rwrist -16.1336
rhand -30.7233 10.7639
rfingers 7.12502
rthumb -4.0159 -19.178
lclavicle 2.31087e-014 8.5875e-014
lhumerus -6.53673 -32.2697 76.8711
lradius 137.175
lwrist 5.82652
lhand -12.1768 4.35729
lfingers 7.12502
lthumb 13.8866 33.8737
rfemur -96.396 -19.9695 25.2866
rtibia 131.997
rfoot 3.00622 3.07965
rtoes -12.2599
lfemur -9.9872 -4.17795 -24.6854
ltibia 36.8222
lfoot -17.2445 9.84099
ltoes 19.8512
615
root 0.954649 15.2795 2.76087 -7.58683 23.9359 -5.79615
lowerback 5.34187 -0.386262 0.566811
upperback 0.503344 -0.29086 5.96161
thorax -2.45306 -0.108419 5.90314
lowerneck -7.13245 -3.92099 6.89531
upperneck 39.4971 -9.15323 5.32603
head 15.0755 -1.98505 -0.208503
rclavicle 3.95581e-014 7.71285e-014
rhumerus -13.792 -4.18025 -56.4213
rradius 133.878
rwrist -16.4547
rhand -30.5453 10.8585
rfingers 7.12502
rthumb -3.84406 -19.0866
lclavicle 3.95581e-014 7.71285e-014
lhumerus -6.74661 -31.8829 76.3061
lradius 137.35
lwrist 5.82727
lhand -12.1669 4.41726
lfingers 7.12502
lthumb 13.8961 33.933
rfemur -93.6307 -19.0342 25.3557
rtibia 132.572
rfoot 2.81133 3.56747
rtoes -12.2355
lfemur -11.5606 -4.06162 -25.1286
ltibia 36.9329
lfoot -17.1875 10.3903
ltoes 20.0745
616
root 0.938048 15.2765 2.71316 -6.24358 23.2963 -5.24676
lowerback 4.81554 -0.249049 0.524882
upperback 0.135026 -0.123647 5.66815
thorax -2.55536 -0.0221997 5.60043
lowerneck -7.29861 -3.81887 6.92892
upperneck 39.5037 -9.04608 5.34379
head 15.1181 -1.93109 -0.198179
rclavicle -6.89534e-014 -3.89618e-014
rhumerus -13.4873 -3.84583 -56.7992
rradius 133.808
rwrist -16.518
rhand -30.4106 10.9228
rfingers 7.12502
rthumb -3.71399 -19.0246
lclavicle -6.89534e-014 -3.89618e-014
lhumerus -6.96206 -31.5085 75.712
lradius 137.528
lwrist 5.7959
lhand -12.2789 4.42277
lfingers 7.12502
lthumb 13.7882 33.9458
rfemur -90.5744 -18.0414 25.2545
rtibia 132.829
rfoot 2.63253 4.12721
rtoes -12.2007
lfemur -13.0336 -3.91658 -25.5258
ltibia 37.0636
lfoot -17.1026 10.8609
ltoes 20.2422
